# xmcd CD database file
#
# Track frame offsets:
#	150
#	10780
#	20812
#	33935
#	44557
#	56017
#	68990
#	77450
#	91815
#	103600
#	118725
#	128470
#
# Disc length: 1926 seconds
#
# Revision: 0
# Processed by: cddbd v1.5.2PL0 Copyright (c) Steve Scherf et al.
# Submitted via: CDex 1.51
#
DISCID=9307840c
DTITLE=Cowboy Copas - Mister Country Music
DYEAR=1962
DGENRE=Country
TTITLE0=Sal
TTITLE1=A Thousand Miles Of Ocean
TTITLE2=Soft Rain
TTITLE3=A Penny For Your Thoughts
TTITLE4=You Are The One
TTITLE5=How Do You Talk To A Baby
TTITLE6=Black Eyed Susan
TTITLE7=Seven Seas From You
TTITLE8=Louisian
TTITLE9=There'll Come A Time Someday
TTITLE10=First Things First
TTITLE11=I Dreamed Of A Hill-Billy Heaven
EXTD=YEAR: 1962
EXTT0=
EXTT1=
EXTT2=
EXTT3=
EXTT4=
EXTT5=
EXTT6=
EXTT7=
EXTT8=
EXTT9=
EXTT10=
EXTT11=
PLAYORDER=
